# xmcd
#
# Track frame offsets: 
#        150
#        22556
#        43077
#        54772
#        71666
#        97723
#        115986
#        131039
#        150142
#        173960
#        206869
#
# Disc length: 3061 seconds
#
# Revision: 2
# Processed by: cddbd v1.5.2PL0 Copyright (c) Steve Scherf et al.
# Submitted via: ExactAudioCopyFreeDBPlugin 1.0
#
DISCID=830bf30b
DTITLE=Daniele Luttazzi - Money For Dope
DYEAR=2005
DGENRE=Other
TTITLE0=Silence (1979)
TTITLE1=Vienna, Vienna (2002)
TTITLE2=Something Fantastic (2000)
TTITLE3=Make Your Mother Sigh (1981)
TTITLE4=Easy To Be Fooled (2003)
TTITLE5=Guard My Tongue (2003)
TTITLE6=Doom (1985)
TTITLE7=I Can't Stand It (1988)
TTITLE8=Letters On Fire (1994)
TTITLE9=Money For Dope (1979)
TTITLE10=DATA
EXTD=YEAR: 2005
EXTT0=
EXTT1=
EXTT2=
EXTT3=
EXTT4=
EXTT5=
EXTT6=
EXTT7=
EXTT8=
EXTT9=
EXTT10=
PLAYORDER=
